<svg xmlns="http://www.w3.org/2000/svg" id="icon-wash" viewBox="0 0 60 60" fill="none" stroke="currentColor" stroke-width="1.3" stroke-linecap="round" stroke-linejoin="round">
  
  <line x1="30" y1="6" x2="30" y2="14"></line>
  <path d="M26 6 h8"></path>
  <path d="M24 6 l2-3 h8 l2 3" stroke-width="1"></path>
  
  <rect x="28" y="14" width="4" height="5" rx=".5"></rect>
  
  <path d="M25 19 h10"></path>
  
  <path d="M23 19 v28 c0 1.5 1 2.5 2.5 2.5 h9 c1.5 0 2.5-1 2.5-2.5 V19"></path>
  
  <path d="M30 30 C28.5 33 28 34 28 35.5 a2 2 0 0 0 4 0 c0-1.5-.5-2.5-2-5.5Z" opacity=".35"></path>
</svg>