



<svg xmlns="http://www.w3.org/2000/svg" id="icon-candle" viewBox="0 0 60 60" fill="none" stroke="currentColor" stroke-width="1.3" stroke-linecap="round" stroke-linejoin="round">
  
  <path d="M30 10 C27 15 25.5 17 25.5 20 a4.5 4.5 0 0 0 9 0 c0-3-1.5-5-4.5-10Z"></path>
  <path d="M30 16 C29 18 28.5 19 28.5 20.5 a1.5 1.5 0 0 0 3 0 c0-1.5-.5-2.5-1.5-4.5Z" stroke-width="1"></path>
  
  <line x1="30" y1="24" x2="30" y2="27"></line>
  
  <path d="M21 27 h18 v20 c0 2-1 3-3 3 h-12 c-2 0-3-1-3-3 Z"></path>
  
  <path d="M21 32 h18" stroke-dasharray="0" opacity=".4"></path>
</svg>