<svg xmlns="http://www.w3.org/2000/svg" viewBox="0 0 555.5 303.2" width="555.5" height="303.2">
<g transform="translate(226.8,8) scale(3.4)"><g stroke="#B05E36" fill="none" stroke-linecap="round" stroke-linejoin="round">
<path stroke-width="1.40" d="M15 1.6 C9.2 10.4 6 14.8 6 21.8 a9 9 0 0 0 18 0 C24 14.8 20.8 10.4 15 1.6 Z"></path>
<path stroke-width="1.15" d="M15 13.8 C12.1 17.6 11 19.6 11 22.6 a4 4 0 0 0 8 0 C19 19.6 17.9 17.6 15 13.8 Z"></path>
<path stroke-width="1.40" d="M15 30.8 L15 37"></path>
</g></g>
<g transform="translate(8,241.2)"><path fill="#2A211A" d="M18.50 0L23-39.30L43.30-6.50L63.60-39.30L68.10 0L83 0L72.60-73.50L43.30-28.30L14-73.50L3.60 0L18.50 0ZM127.30-35L127.30-35Q127.30-41.70 130.10-46.90Q132.90-52.10 137.80-55.10Q142.70-58.10 149.20-58.10L149.20-58.10Q155.80-58.10 160.70-55.10Q165.60-52.10 168.30-46.90Q171-41.70 171-35L171-35Q171-28.30 168.25-23.10Q165.50-17.90 160.60-14.90Q155.70-11.90 149.20-11.90L149.20-11.90Q142.70-11.90 137.80-14.90Q132.90-17.90 130.10-23.10Q127.30-28.30 127.30-35ZM112.20-35L112.20-35Q112.20-27.10 114.90-20.35Q117.60-13.60 122.60-8.60Q127.60-3.60 134.35-0.85Q141.10 1.90 149.20 1.90L149.20 1.90Q157.30 1.90 164.05-0.85Q170.80-3.60 175.75-8.60Q180.70-13.60 183.45-20.35Q186.20-27.10 186.20-35L186.20-35Q186.20-43 183.45-49.65Q180.70-56.30 175.65-61.20Q170.60-66.10 163.90-68.75Q157.20-71.40 149.20-71.40L149.20-71.40Q141.30-71.40 134.55-68.75Q127.80-66.10 122.80-61.20Q117.80-56.30 115-49.65Q112.20-43 112.20-35ZM230.40-35L230.40-35Q230.40-41.70 233.20-46.90Q236-52.10 240.90-55.10Q245.80-58.10 252.30-58.10L252.30-58.10Q258.90-58.10 263.80-55.10Q268.70-52.10 271.40-46.90Q274.10-41.70 274.10-35L274.10-35Q274.10-28.30 271.35-23.10Q268.60-17.90 263.70-14.90Q258.80-11.90 252.30-11.90L252.30-11.90Q245.80-11.90 240.90-14.90Q236-17.90 233.20-23.10Q230.40-28.30 230.40-35ZM215.30-35L215.30-35Q215.30-27.10 218-20.35Q220.70-13.60 225.70-8.60Q230.70-3.60 237.45-0.85Q244.20 1.90 252.30 1.90L252.30 1.90Q260.40 1.90 267.15-0.85Q273.90-3.60 278.85-8.60Q283.80-13.60 286.55-20.35Q289.30-27.10 289.30-35L289.30-35Q289.30-43 286.55-49.65Q283.80-56.30 278.75-61.20Q273.70-66.10 267-68.75Q260.30-71.40 252.30-71.40L252.30-71.40Q244.40-71.40 237.65-68.75Q230.90-66.10 225.90-61.20Q220.90-56.30 218.10-49.65Q215.30-43 215.30-35ZM345.90-70L322.40-70L322.40 0L336.70 0L336.70-25.40L342.90-25.40L359.30 0L376.20 0L357.30-27.10Q358.70-27.60 360-28.20L360-28.20Q365.80-31 368.90-36.05Q372-41.10 372-47.70L372-47.70Q372-54.40 368.90-59.40Q365.80-64.40 360-67.20Q354.20-70 345.90-70L345.90-70ZM345-36.80L336.70-36.80L336.70-57.80L345-57.80Q348.80-57.80 351.55-56.55Q354.30-55.30 355.80-52.95Q357.30-50.60 357.30-47.30Q357.30-44 355.80-41.65Q354.30-39.30 351.55-38.05Q348.80-36.80 345-36.80L345-36.80ZM450.90-70L406.40-70L406.40 0L450.90 0L450.90-12.10L420.20-12.10L420.20-31.20L448.90-31.20L448.90-43.10L420.20-43.10L420.20-57.90L450.90-57.90L450.90-70ZM493.10-23.50L493.10-23.50L482.90-16.30Q485.20-11.40 489.30-7.20Q493.40-3 498.95-0.55Q504.50 1.90 510.90 1.90L510.90 1.90Q515.70 1.90 520.05 0.45Q524.40-1 527.90-3.75Q531.40-6.50 533.40-10.50Q535.40-14.50 535.40-19.60L535.40-19.60Q535.40-24.10 533.95-27.55Q532.50-31 529.95-33.55Q527.40-36.10 524.25-37.90Q521.10-39.70 517.70-40.90L517.70-40.90Q512.40-42.70 508.90-44.45Q505.40-46.20 503.70-48.15Q502-50.10 502-52.70L502-52.70Q502-55.30 504.10-57.25Q506.20-59.20 510.40-59.20L510.40-59.20Q513.60-59.20 516.10-57.95Q518.60-56.70 520.55-54.65Q522.50-52.60 523.90-50.10L523.90-50.10L535.10-56.30Q533.30-60 530.05-63.45Q526.80-66.90 521.95-69.15Q517.10-71.40 510.40-71.40L510.40-71.40Q503.90-71.40 498.65-69.05Q493.40-66.70 490.35-62.35Q487.30-58 487.30-52L487.30-52Q487.30-47 489.20-43.45Q491.10-39.90 494-37.45Q496.90-35 500.15-33.45Q503.40-31.90 505.90-31L505.90-31Q510.60-29.20 513.85-27.65Q517.10-26.10 518.75-24.10Q520.40-22.10 520.40-18.80L520.40-18.80Q520.40-15 517.70-12.80Q515-10.60 510.70-10.60L510.70-10.60Q507-10.60 503.80-12.20Q500.60-13.80 497.95-16.70Q495.30-19.60 493.10-23.50Z"></path><path fill="#6F6152" d="M26.64 26L21.92 26L21.92 36.80L7.84 36.80L7.84 26L3.12 26L3.12 54L7.84 54L7.84 41.16L21.92 41.16L21.92 54L26.64 54L26.64 26ZM53.25 40L53.25 40Q53.25 37.12 54.48 34.86Q55.73 32.60 57.87 31.32Q60.01 30.04 62.77 30.04L62.77 30.04Q65.61 30.04 67.75 31.32Q69.89 32.60 71.09 34.86Q72.28 37.12 72.28 40L72.28 40Q72.28 42.88 71.06 45.12Q69.84 47.36 67.70 48.66Q65.56 49.96 62.77 49.96L62.77 49.96Q60.01 49.96 57.87 48.66Q55.73 47.36 54.48 45.12Q53.25 42.88 53.25 40ZM48.25 40L48.25 40Q48.25 43.12 49.33 45.80Q50.41 48.48 52.37 50.44Q54.33 52.40 56.98 53.50Q59.65 54.60 62.77 54.60L62.77 54.60Q65.97 54.60 68.61 53.50Q71.25 52.40 73.20 50.44Q75.17 48.48 76.25 45.80Q77.33 43.12 77.33 40L77.33 40Q77.33 36.84 76.25 34.20Q75.17 31.56 73.19 29.62Q71.20 27.68 68.56 26.58Q65.92 25.48 62.77 25.48L62.77 25.48Q59.69 25.48 57.03 26.58Q54.37 27.68 52.39 29.62Q50.41 31.56 49.33 34.20Q48.25 36.84 48.25 40ZM102.21 54L104.13 36.96L112.65 51.40L121.21 36.96L123.13 54L128.01 54L124.17 24.60L112.65 43.60L101.17 24.60L97.33 54L102.21 54ZM166.66 26L149.62 26L149.62 54L166.66 54L166.66 49.84L154.25 49.84L154.25 41.04L165.86 41.04L165.86 36.96L154.25 36.96L154.25 30.16L166.66 30.16L166.66 26ZM223.75 38.32L223.75 38.32Q222.71 38.80 221.63 39.40L221.63 39.40Q220.35 40.12 219.29 41.10Q218.23 42.08 217.55 43.44Q216.87 44.80 216.87 46.60L216.87 46.60Q216.87 49 218.19 50.78Q219.51 52.56 221.63 53.50Q223.75 54.44 226.19 54.44L226.19 54.44Q228.95 54.44 231.31 53.44L231.31 53.44Q233.39 52.56 235.19 51.20L235.19 51.20L237.67 54L242.75 54L237.99 48.68Q238.71 47.96 239.39 47.16L239.39 47.16Q241.07 45.16 242.55 43.12L242.55 43.12L239.43 40.96Q238.11 42.88 236.63 44.60L236.63 44.60Q236.07 45.28 235.51 45.88L235.51 45.88L229.47 39.08Q230.47 38.44 231.31 37.80L231.31 37.80Q232.47 36.92 233.27 36Q234.07 35.08 234.49 34.08Q234.91 33.08 234.91 31.92L234.91 31.92Q234.91 30.24 234.07 28.78Q233.23 27.32 231.61 26.38Q229.99 25.44 227.67 25.44L227.67 25.44Q225.39 25.44 223.69 26.30Q221.99 27.16 221.05 28.64Q220.11 30.12 220.11 31.96L220.11 31.96Q220.11 33.44 220.81 34.68Q221.51 35.92 222.47 36.92L222.47 36.92Q223.15 37.68 223.75 38.32ZM226.11 41L226.11 41L232.67 48.36Q231.47 49.24 230.19 49.84L230.19 49.84Q228.47 50.64 226.63 50.64L226.63 50.64Q225.11 50.64 223.95 50.08Q222.79 49.52 222.13 48.54Q221.47 47.56 221.47 46.28L221.47 46.28Q221.47 44.88 222.17 43.90Q222.87 42.92 223.99 42.20L223.99 42.20Q224.99 41.56 226.11 41ZM227.23 36.56L227.23 36.56Q226.31 35.52 225.55 34.60L225.55 34.60Q224.47 33.40 224.47 32.12L224.47 32.12Q224.47 30.80 225.29 29.94Q226.11 29.08 227.63 29.08L227.63 29.08Q228.63 29.08 229.33 29.50Q230.03 29.92 230.41 30.60Q230.79 31.28 230.79 32.16L230.79 32.16Q230.79 33.40 229.55 34.72L229.55 34.72Q228.63 35.68 227.23 36.56ZM305.88 39.36L305.88 43.36L314.48 43.36Q314.12 44.76 313.40 46Q312.68 47.24 311.60 48.20Q310.52 49.16 309.04 49.68Q307.56 50.20 305.68 50.20L305.68 50.20Q302.92 50.20 300.72 48.92Q298.52 47.64 297.24 45.34Q295.96 43.04 295.96 40L295.96 40Q295.96 36.92 297.26 34.66Q298.56 32.40 300.78 31.14Q303.00 29.88 305.68 29.88L305.68 29.88Q308.60 29.88 310.66 31.08Q312.72 32.28 313.88 34.28L313.88 34.28L317.72 31.72Q316.48 29.76 314.72 28.38Q312.96 27 310.70 26.24Q308.44 25.48 305.68 25.48L305.68 25.48Q302.52 25.48 299.84 26.54Q297.16 27.60 295.16 29.54Q293.16 31.48 292.06 34.14Q290.96 36.80 290.96 40L290.96 40Q290.96 43.20 292.04 45.88Q293.12 48.56 295.10 50.52Q297.08 52.48 299.76 53.54Q302.44 54.60 305.60 54.60L305.60 54.60Q308.96 54.60 311.56 53.38Q314.16 52.16 315.92 50.04Q317.68 47.92 318.56 45.18Q319.44 42.44 319.36 39.36L319.36 39.36L305.88 39.36ZM346.68 46.80L357.00 46.80L360.20 54L365.56 54L351.84 24.44L338.16 54L343.48 54L346.68 46.80ZM348.04 42.80L351.84 33.92L355.68 42.80L348.04 42.80ZM394.37 26L385.73 26L385.73 54L390.45 54L390.45 43.40L393.37 43.40L400.41 54L406.13 54L398.21 42.88Q399.01 42.64 399.69 42.32L399.69 42.32Q401.93 41.24 403.19 39.28Q404.45 37.32 404.45 34.68Q404.45 32.04 403.19 30.10Q401.93 28.16 399.69 27.08Q397.45 26 394.37 26L394.37 26ZM394.17 39.48L390.45 39.48L390.45 30.08L394.17 30.08Q395.81 30.08 397.01 30.64Q398.21 31.20 398.89 32.24Q399.57 33.28 399.57 34.80L399.57 34.80Q399.57 36.28 398.89 37.34Q398.21 38.40 397.01 38.94Q395.81 39.48 394.17 39.48L394.17 39.48ZM435.53 26L426.49 26L426.49 54L435.53 54Q439.81 54 443.05 52.26Q446.29 50.52 448.11 47.38Q449.93 44.24 449.93 40Q449.93 35.76 448.11 32.62Q446.29 29.48 443.05 27.74Q439.81 26 435.53 26L435.53 26ZM435.41 49.56L431.33 49.56L431.33 30.44L435.41 30.44Q437.49 30.44 439.25 31.04Q441.01 31.64 442.31 32.84Q443.61 34.04 444.35 35.84Q445.09 37.64 445.09 40Q445.09 42.36 444.35 44.16Q443.61 45.96 442.31 47.14Q441.01 48.32 439.25 48.94Q437.49 49.56 435.41 49.56L435.41 49.56ZM488.54 26L471.50 26L471.50 54L488.54 54L488.54 49.84L476.14 49.84L476.14 41.04L487.74 41.04L487.74 36.96L476.14 36.96L476.14 30.16L488.54 30.16L488.54 26ZM536.38 26L531.74 26L531.74 44.80L511.30 24.60L511.30 54L515.94 54L515.94 35.20L536.38 55.40L536.38 26Z"></path></g>
</svg>